<mxfile host="app.diagrams.net" modified="2024-04-22T12:45:54.799Z" agent="Mozilla/5.0 (Windows NT 10.0; Win64; x64) AppleWebKit/537.36 (KHTML, like Gecko) Chrome/116.0.0.0 Safari/537.36" etag="4ft4fELCG9pDaIrzDT2X" version="24.2.7" type="github">
  <diagram name="第 1 页" id="nx9jzgKV5eye6fr60ANa">
    <mxGraphModel dx="1750" dy="2090" grid="1" gridSize="10" guides="1" tooltips="1" connect="1" arrows="1" fold="1" page="1" pageScale="1" pageWidth="1920" pageHeight="1200" math="1" shadow="0">
      <root>
        <mxCell id="0" />
        <mxCell id="1" parent="0" />
        <mxCell id="BGMyjtejTybz9Mz2t8w0-2" value="" style="shape=image;verticalLabelPosition=bottom;labelBackgroundColor=default;verticalAlign=top;aspect=fixed;imageAspect=0;image=http://ai2-s2-public.s3.amazonaws.com/figures/2017-08-08/f7bdb849dafe17c952bfd88b879e01f74cf59d78/4-Figure3-1.png;" vertex="1" parent="1">
          <mxGeometry x="440" y="-60" width="648" height="322" as="geometry" />
        </mxCell>
        <mxCell id="BGMyjtejTybz9Mz2t8w0-8" value="" style="endArrow=classic;html=1;rounded=0;fontSize=20;exitX=0.5;exitY=0;exitDx=0;exitDy=0;entryX=0.5;entryY=1;entryDx=0;entryDy=0;" edge="1" parent="1" source="BGMyjtejTybz9Mz2t8w0-5" target="BGMyjtejTybz9Mz2t8w0-1">
          <mxGeometry width="50" height="50" relative="1" as="geometry">
            <mxPoint x="534.21" y="622" as="sourcePoint" />
            <mxPoint x="534.1" y="520" as="targetPoint" />
          </mxGeometry>
        </mxCell>
        <mxCell id="BGMyjtejTybz9Mz2t8w0-14" style="rounded=0;orthogonalLoop=1;jettySize=auto;html=1;exitX=0.5;exitY=0;exitDx=0;exitDy=0;entryX=0.5;entryY=1;entryDx=0;entryDy=0;" edge="1" parent="1" source="BGMyjtejTybz9Mz2t8w0-10" target="BGMyjtejTybz9Mz2t8w0-5">
          <mxGeometry relative="1" as="geometry">
            <mxPoint x="530" y="640" as="targetPoint" />
          </mxGeometry>
        </mxCell>
        <mxCell id="BGMyjtejTybz9Mz2t8w0-48" style="edgeStyle=orthogonalEdgeStyle;rounded=0;orthogonalLoop=1;jettySize=auto;html=1;exitX=1;exitY=0.5;exitDx=0;exitDy=0;entryX=0;entryY=0.5;entryDx=0;entryDy=0;" edge="1" parent="1" source="BGMyjtejTybz9Mz2t8w0-10" target="BGMyjtejTybz9Mz2t8w0-24">
          <mxGeometry relative="1" as="geometry" />
        </mxCell>
        <mxCell id="BGMyjtejTybz9Mz2t8w0-10" value="&lt;font face=&quot;Times New Roman&quot;&gt;&lt;i&gt;LSTM&lt;/i&gt;&lt;/font&gt;" style="rounded=0;whiteSpace=wrap;html=1;fontSize=18;fillColor=#fff2cc;strokeColor=#d6b656;" vertex="1" parent="1">
          <mxGeometry x="440" y="710" width="120" height="60" as="geometry" />
        </mxCell>
        <mxCell id="BGMyjtejTybz9Mz2t8w0-5" value="" style="ellipse;whiteSpace=wrap;html=1;aspect=fixed;fillColor=#f5f5f5;strokeColor=#666666;fontColor=#333333;container=0;" vertex="1" parent="1">
          <mxGeometry x="505.12" y="570" width="64.35" height="64.35" as="geometry" />
        </mxCell>
        <mxCell id="BGMyjtejTybz9Mz2t8w0-6" value="&lt;p class=&quot;MsoNormal&quot; style=&quot;&quot;&gt;&lt;i style=&quot;&quot;&gt;&lt;span style=&quot;font-family: &amp;quot;Times New Roman&amp;quot;;&quot;&gt;&lt;font face=&quot;Times New Roman&quot; style=&quot;font-size: 23px;&quot;&gt;σ&lt;/font&gt;&lt;/span&gt;&lt;/i&gt;&lt;/p&gt;" style="text;whiteSpace=wrap;html=1;fontSize=33;container=0;" vertex="1" parent="1">
          <mxGeometry x="530" y="540" width="30" height="80" as="geometry" />
        </mxCell>
        <mxCell id="BGMyjtejTybz9Mz2t8w0-1" value="" style="ellipse;whiteSpace=wrap;html=1;aspect=fixed;fillColor=#dae8fc;strokeColor=#6c8ebf;container=0;" vertex="1" parent="1">
          <mxGeometry x="502.2936842105263" y="450" width="70" height="70" as="geometry" />
        </mxCell>
        <mxCell id="BGMyjtejTybz9Mz2t8w0-3" value="&lt;span style=&quot;font-size: 23px;&quot;&gt;&lt;font face=&quot;Times New Roman&quot; style=&quot;font-size: 23px;&quot;&gt;$$y_{t-1}$$&lt;/font&gt;&lt;/span&gt;" style="text;html=1;align=center;verticalAlign=middle;resizable=0;points=[];autosize=1;strokeColor=none;fillColor=none;fontSize=23;container=0;" vertex="1" parent="1">
          <mxGeometry x="468.3" y="462.0018181818182" width="140" height="40" as="geometry" />
        </mxCell>
        <mxCell id="BGMyjtejTybz9Mz2t8w0-17" style="rounded=0;orthogonalLoop=1;jettySize=auto;html=1;exitX=0.5;exitY=0;exitDx=0;exitDy=0;entryX=0.5;entryY=1;entryDx=0;entryDy=0;" edge="1" parent="1" source="BGMyjtejTybz9Mz2t8w0-13" target="BGMyjtejTybz9Mz2t8w0-5">
          <mxGeometry relative="1" as="geometry" />
        </mxCell>
        <mxCell id="BGMyjtejTybz9Mz2t8w0-57" style="edgeStyle=orthogonalEdgeStyle;rounded=0;orthogonalLoop=1;jettySize=auto;html=1;exitX=0;exitY=0.5;exitDx=0;exitDy=0;" edge="1" parent="1" source="BGMyjtejTybz9Mz2t8w0-13">
          <mxGeometry relative="1" as="geometry">
            <mxPoint x="370" y="840" as="targetPoint" />
          </mxGeometry>
        </mxCell>
        <mxCell id="BGMyjtejTybz9Mz2t8w0-13" value="&lt;font face=&quot;Times New Roman&quot;&gt;&lt;i&gt;LSTM&lt;/i&gt;&lt;/font&gt;" style="rounded=0;whiteSpace=wrap;html=1;fontSize=18;fillColor=#fff2cc;strokeColor=#d6b656;" vertex="1" parent="1">
          <mxGeometry x="530" y="810" width="120" height="60" as="geometry" />
        </mxCell>
        <mxCell id="BGMyjtejTybz9Mz2t8w0-19" style="rounded=0;orthogonalLoop=1;jettySize=auto;html=1;exitX=0.5;exitY=0;exitDx=0;exitDy=0;entryX=0.5;entryY=1;entryDx=0;entryDy=0;" edge="1" parent="1" source="BGMyjtejTybz9Mz2t8w0-18" target="BGMyjtejTybz9Mz2t8w0-10">
          <mxGeometry relative="1" as="geometry" />
        </mxCell>
        <mxCell id="BGMyjtejTybz9Mz2t8w0-20" style="rounded=0;orthogonalLoop=1;jettySize=auto;html=1;exitX=0.5;exitY=0;exitDx=0;exitDy=0;entryX=0.5;entryY=1;entryDx=0;entryDy=0;" edge="1" parent="1" source="BGMyjtejTybz9Mz2t8w0-18" target="BGMyjtejTybz9Mz2t8w0-13">
          <mxGeometry relative="1" as="geometry" />
        </mxCell>
        <mxCell id="BGMyjtejTybz9Mz2t8w0-18" value="" style="ellipse;whiteSpace=wrap;html=1;aspect=fixed;fillColor=#f8cecc;strokeColor=#b85450;container=0;" vertex="1" parent="1">
          <mxGeometry x="502.2936842105263" y="957" width="70" height="70" as="geometry" />
        </mxCell>
        <mxCell id="BGMyjtejTybz9Mz2t8w0-21" value="$$x_{t-1}$$" style="text;html=1;align=center;verticalAlign=middle;resizable=0;points=[];autosize=1;strokeColor=none;fillColor=none;fontSize=23;" vertex="1" parent="1">
          <mxGeometry x="473" y="970" width="140" height="40" as="geometry" />
        </mxCell>
        <mxCell id="BGMyjtejTybz9Mz2t8w0-22" value="" style="endArrow=classic;html=1;rounded=0;fontSize=20;exitX=0.5;exitY=0;exitDx=0;exitDy=0;entryX=0.5;entryY=1;entryDx=0;entryDy=0;" edge="1" parent="1" source="BGMyjtejTybz9Mz2t8w0-25" target="BGMyjtejTybz9Mz2t8w0-27">
          <mxGeometry width="50" height="50" relative="1" as="geometry">
            <mxPoint x="874.21" y="622" as="sourcePoint" />
            <mxPoint x="874.1" y="520" as="targetPoint" />
          </mxGeometry>
        </mxCell>
        <mxCell id="BGMyjtejTybz9Mz2t8w0-23" style="rounded=0;orthogonalLoop=1;jettySize=auto;html=1;exitX=0.5;exitY=0;exitDx=0;exitDy=0;entryX=0.5;entryY=1;entryDx=0;entryDy=0;" edge="1" parent="1" source="BGMyjtejTybz9Mz2t8w0-24" target="BGMyjtejTybz9Mz2t8w0-25">
          <mxGeometry relative="1" as="geometry">
            <mxPoint x="870" y="640" as="targetPoint" />
          </mxGeometry>
        </mxCell>
        <mxCell id="BGMyjtejTybz9Mz2t8w0-49" style="edgeStyle=orthogonalEdgeStyle;rounded=0;orthogonalLoop=1;jettySize=auto;html=1;exitX=1;exitY=0.5;exitDx=0;exitDy=0;" edge="1" parent="1" source="BGMyjtejTybz9Mz2t8w0-24" target="BGMyjtejTybz9Mz2t8w0-37">
          <mxGeometry relative="1" as="geometry" />
        </mxCell>
        <mxCell id="BGMyjtejTybz9Mz2t8w0-24" value="&lt;font face=&quot;Times New Roman&quot;&gt;&lt;i&gt;LSTM&lt;/i&gt;&lt;/font&gt;" style="rounded=0;whiteSpace=wrap;html=1;fontSize=18;fillColor=#fff2cc;strokeColor=#d6b656;" vertex="1" parent="1">
          <mxGeometry x="780" y="710" width="120" height="60" as="geometry" />
        </mxCell>
        <mxCell id="BGMyjtejTybz9Mz2t8w0-25" value="" style="ellipse;whiteSpace=wrap;html=1;aspect=fixed;fillColor=#f5f5f5;strokeColor=#666666;fontColor=#333333;container=0;" vertex="1" parent="1">
          <mxGeometry x="845.12" y="570" width="64.35" height="64.35" as="geometry" />
        </mxCell>
        <mxCell id="BGMyjtejTybz9Mz2t8w0-26" value="&lt;p class=&quot;MsoNormal&quot; style=&quot;&quot;&gt;&lt;i style=&quot;&quot;&gt;&lt;span style=&quot;font-family: &amp;quot;Times New Roman&amp;quot;;&quot;&gt;&lt;font face=&quot;Times New Roman&quot; style=&quot;font-size: 23px;&quot;&gt;σ&lt;/font&gt;&lt;/span&gt;&lt;/i&gt;&lt;/p&gt;" style="text;whiteSpace=wrap;html=1;fontSize=33;container=0;" vertex="1" parent="1">
          <mxGeometry x="870" y="540" width="30" height="80" as="geometry" />
        </mxCell>
        <mxCell id="BGMyjtejTybz9Mz2t8w0-27" value="" style="ellipse;whiteSpace=wrap;html=1;aspect=fixed;fillColor=#dae8fc;strokeColor=#6c8ebf;container=0;" vertex="1" parent="1">
          <mxGeometry x="842.2936842105263" y="450" width="70" height="70" as="geometry" />
        </mxCell>
        <mxCell id="BGMyjtejTybz9Mz2t8w0-28" value="&lt;span style=&quot;font-size: 23px;&quot;&gt;&lt;font face=&quot;Times New Roman&quot; style=&quot;font-size: 23px;&quot;&gt;$$y_{t}$$&lt;/font&gt;&lt;/span&gt;" style="text;html=1;align=center;verticalAlign=middle;resizable=0;points=[];autosize=1;strokeColor=none;fillColor=none;fontSize=23;container=0;" vertex="1" parent="1">
          <mxGeometry x="818.3" y="462.0018181818182" width="120" height="40" as="geometry" />
        </mxCell>
        <mxCell id="BGMyjtejTybz9Mz2t8w0-29" style="rounded=0;orthogonalLoop=1;jettySize=auto;html=1;exitX=0.5;exitY=0;exitDx=0;exitDy=0;entryX=0.5;entryY=1;entryDx=0;entryDy=0;" edge="1" parent="1" source="BGMyjtejTybz9Mz2t8w0-30" target="BGMyjtejTybz9Mz2t8w0-25">
          <mxGeometry relative="1" as="geometry" />
        </mxCell>
        <mxCell id="BGMyjtejTybz9Mz2t8w0-52" style="edgeStyle=orthogonalEdgeStyle;rounded=0;orthogonalLoop=1;jettySize=auto;html=1;exitX=0;exitY=0.5;exitDx=0;exitDy=0;entryX=1;entryY=0.5;entryDx=0;entryDy=0;" edge="1" parent="1" source="BGMyjtejTybz9Mz2t8w0-30" target="BGMyjtejTybz9Mz2t8w0-13">
          <mxGeometry relative="1" as="geometry" />
        </mxCell>
        <mxCell id="BGMyjtejTybz9Mz2t8w0-30" value="&lt;font face=&quot;Times New Roman&quot;&gt;&lt;i&gt;LSTM&lt;/i&gt;&lt;/font&gt;" style="rounded=0;whiteSpace=wrap;html=1;fontSize=18;fillColor=#fff2cc;strokeColor=#d6b656;" vertex="1" parent="1">
          <mxGeometry x="870" y="810" width="120" height="60" as="geometry" />
        </mxCell>
        <mxCell id="BGMyjtejTybz9Mz2t8w0-31" style="rounded=0;orthogonalLoop=1;jettySize=auto;html=1;exitX=0.5;exitY=0;exitDx=0;exitDy=0;entryX=0.5;entryY=1;entryDx=0;entryDy=0;" edge="1" parent="1" source="BGMyjtejTybz9Mz2t8w0-33" target="BGMyjtejTybz9Mz2t8w0-24">
          <mxGeometry relative="1" as="geometry" />
        </mxCell>
        <mxCell id="BGMyjtejTybz9Mz2t8w0-32" style="rounded=0;orthogonalLoop=1;jettySize=auto;html=1;exitX=0.5;exitY=0;exitDx=0;exitDy=0;entryX=0.5;entryY=1;entryDx=0;entryDy=0;" edge="1" parent="1" source="BGMyjtejTybz9Mz2t8w0-33" target="BGMyjtejTybz9Mz2t8w0-30">
          <mxGeometry relative="1" as="geometry" />
        </mxCell>
        <mxCell id="BGMyjtejTybz9Mz2t8w0-33" value="" style="ellipse;whiteSpace=wrap;html=1;aspect=fixed;fillColor=#f8cecc;strokeColor=#b85450;container=0;" vertex="1" parent="1">
          <mxGeometry x="842.2936842105263" y="957" width="70" height="70" as="geometry" />
        </mxCell>
        <mxCell id="BGMyjtejTybz9Mz2t8w0-34" value="$$x_{t}$$" style="text;html=1;align=center;verticalAlign=middle;resizable=0;points=[];autosize=1;strokeColor=none;fillColor=none;fontSize=23;" vertex="1" parent="1">
          <mxGeometry x="819.29" y="970" width="120" height="40" as="geometry" />
        </mxCell>
        <mxCell id="BGMyjtejTybz9Mz2t8w0-35" value="" style="endArrow=classic;html=1;rounded=0;fontSize=20;exitX=0.5;exitY=0;exitDx=0;exitDy=0;entryX=0.5;entryY=1;entryDx=0;entryDy=0;" edge="1" parent="1" source="BGMyjtejTybz9Mz2t8w0-38" target="BGMyjtejTybz9Mz2t8w0-40">
          <mxGeometry width="50" height="50" relative="1" as="geometry">
            <mxPoint x="1215.21" y="622" as="sourcePoint" />
            <mxPoint x="1215.1" y="520" as="targetPoint" />
          </mxGeometry>
        </mxCell>
        <mxCell id="BGMyjtejTybz9Mz2t8w0-36" style="rounded=0;orthogonalLoop=1;jettySize=auto;html=1;exitX=0.5;exitY=0;exitDx=0;exitDy=0;entryX=0.5;entryY=1;entryDx=0;entryDy=0;" edge="1" parent="1" source="BGMyjtejTybz9Mz2t8w0-37" target="BGMyjtejTybz9Mz2t8w0-38">
          <mxGeometry relative="1" as="geometry">
            <mxPoint x="1211" y="640" as="targetPoint" />
          </mxGeometry>
        </mxCell>
        <mxCell id="BGMyjtejTybz9Mz2t8w0-50" style="edgeStyle=orthogonalEdgeStyle;rounded=0;orthogonalLoop=1;jettySize=auto;html=1;exitX=1;exitY=0.5;exitDx=0;exitDy=0;" edge="1" parent="1" source="BGMyjtejTybz9Mz2t8w0-37">
          <mxGeometry relative="1" as="geometry">
            <mxPoint x="1420" y="740" as="targetPoint" />
          </mxGeometry>
        </mxCell>
        <mxCell id="BGMyjtejTybz9Mz2t8w0-37" value="&lt;font face=&quot;Times New Roman&quot;&gt;&lt;i&gt;LSTM&lt;/i&gt;&lt;/font&gt;" style="rounded=0;whiteSpace=wrap;html=1;fontSize=18;fillColor=#fff2cc;strokeColor=#d6b656;" vertex="1" parent="1">
          <mxGeometry x="1121" y="710" width="120" height="60" as="geometry" />
        </mxCell>
        <mxCell id="BGMyjtejTybz9Mz2t8w0-38" value="" style="ellipse;whiteSpace=wrap;html=1;aspect=fixed;fillColor=#f5f5f5;strokeColor=#666666;fontColor=#333333;container=0;" vertex="1" parent="1">
          <mxGeometry x="1186.12" y="570" width="64.35" height="64.35" as="geometry" />
        </mxCell>
        <mxCell id="BGMyjtejTybz9Mz2t8w0-39" value="&lt;p class=&quot;MsoNormal&quot; style=&quot;&quot;&gt;&lt;i style=&quot;&quot;&gt;&lt;span style=&quot;font-family: &amp;quot;Times New Roman&amp;quot;;&quot;&gt;&lt;font face=&quot;Times New Roman&quot; style=&quot;font-size: 23px;&quot;&gt;σ&lt;/font&gt;&lt;/span&gt;&lt;/i&gt;&lt;/p&gt;" style="text;whiteSpace=wrap;html=1;fontSize=33;container=0;" vertex="1" parent="1">
          <mxGeometry x="1211" y="540" width="30" height="80" as="geometry" />
        </mxCell>
        <mxCell id="BGMyjtejTybz9Mz2t8w0-40" value="" style="ellipse;whiteSpace=wrap;html=1;aspect=fixed;fillColor=#dae8fc;strokeColor=#6c8ebf;container=0;" vertex="1" parent="1">
          <mxGeometry x="1183.2936842105264" y="450" width="70" height="70" as="geometry" />
        </mxCell>
        <mxCell id="BGMyjtejTybz9Mz2t8w0-41" value="&lt;span style=&quot;font-size: 23px;&quot;&gt;&lt;font face=&quot;Times New Roman&quot; style=&quot;font-size: 23px;&quot;&gt;$$y_{t+1}$$&lt;/font&gt;&lt;/span&gt;" style="text;html=1;align=center;verticalAlign=middle;resizable=0;points=[];autosize=1;strokeColor=none;fillColor=none;fontSize=23;container=0;" vertex="1" parent="1">
          <mxGeometry x="1144.3" y="462.0018181818182" width="150" height="40" as="geometry" />
        </mxCell>
        <mxCell id="BGMyjtejTybz9Mz2t8w0-42" style="rounded=0;orthogonalLoop=1;jettySize=auto;html=1;exitX=0.5;exitY=0;exitDx=0;exitDy=0;entryX=0.5;entryY=1;entryDx=0;entryDy=0;" edge="1" parent="1" source="BGMyjtejTybz9Mz2t8w0-43" target="BGMyjtejTybz9Mz2t8w0-38">
          <mxGeometry relative="1" as="geometry" />
        </mxCell>
        <mxCell id="BGMyjtejTybz9Mz2t8w0-51" style="edgeStyle=orthogonalEdgeStyle;rounded=0;orthogonalLoop=1;jettySize=auto;html=1;exitX=0;exitY=0.5;exitDx=0;exitDy=0;entryX=1;entryY=0.5;entryDx=0;entryDy=0;" edge="1" parent="1" source="BGMyjtejTybz9Mz2t8w0-43" target="BGMyjtejTybz9Mz2t8w0-30">
          <mxGeometry relative="1" as="geometry" />
        </mxCell>
        <mxCell id="BGMyjtejTybz9Mz2t8w0-43" value="&lt;font face=&quot;Times New Roman&quot;&gt;&lt;i&gt;LSTM&lt;/i&gt;&lt;/font&gt;" style="rounded=0;whiteSpace=wrap;html=1;fontSize=18;fillColor=#fff2cc;strokeColor=#d6b656;" vertex="1" parent="1">
          <mxGeometry x="1211" y="810" width="120" height="60" as="geometry" />
        </mxCell>
        <mxCell id="BGMyjtejTybz9Mz2t8w0-44" style="rounded=0;orthogonalLoop=1;jettySize=auto;html=1;exitX=0.5;exitY=0;exitDx=0;exitDy=0;entryX=0.5;entryY=1;entryDx=0;entryDy=0;" edge="1" parent="1" source="BGMyjtejTybz9Mz2t8w0-46" target="BGMyjtejTybz9Mz2t8w0-37">
          <mxGeometry relative="1" as="geometry" />
        </mxCell>
        <mxCell id="BGMyjtejTybz9Mz2t8w0-45" style="rounded=0;orthogonalLoop=1;jettySize=auto;html=1;exitX=0.5;exitY=0;exitDx=0;exitDy=0;entryX=0.5;entryY=1;entryDx=0;entryDy=0;" edge="1" parent="1" source="BGMyjtejTybz9Mz2t8w0-46" target="BGMyjtejTybz9Mz2t8w0-43">
          <mxGeometry relative="1" as="geometry" />
        </mxCell>
        <mxCell id="BGMyjtejTybz9Mz2t8w0-46" value="" style="ellipse;whiteSpace=wrap;html=1;aspect=fixed;fillColor=#f8cecc;strokeColor=#b85450;container=0;" vertex="1" parent="1">
          <mxGeometry x="1183.2936842105264" y="957" width="70" height="70" as="geometry" />
        </mxCell>
        <mxCell id="BGMyjtejTybz9Mz2t8w0-47" value="$$x_{t+1}$$" style="text;html=1;align=center;verticalAlign=middle;resizable=0;points=[];autosize=1;strokeColor=none;fillColor=none;fontSize=23;" vertex="1" parent="1">
          <mxGeometry x="1147" y="970" width="150" height="40" as="geometry" />
        </mxCell>
        <mxCell id="BGMyjtejTybz9Mz2t8w0-53" value="" style="whiteSpace=wrap;html=1;aspect=fixed;" vertex="1" parent="1">
          <mxGeometry x="1600" y="230" width="220" height="220" as="geometry" />
        </mxCell>
        <mxCell id="BGMyjtejTybz9Mz2t8w0-55" value="" style="endArrow=classic;html=1;rounded=0;" edge="1" parent="1">
          <mxGeometry width="50" height="50" relative="1" as="geometry">
            <mxPoint x="330" y="738.75" as="sourcePoint" />
            <mxPoint x="440" y="738.75" as="targetPoint" />
          </mxGeometry>
        </mxCell>
        <mxCell id="BGMyjtejTybz9Mz2t8w0-56" value="" style="endArrow=classic;html=1;rounded=0;" edge="1" parent="1">
          <mxGeometry width="50" height="50" relative="1" as="geometry">
            <mxPoint x="1441" y="838.75" as="sourcePoint" />
            <mxPoint x="1331" y="838.75" as="targetPoint" />
          </mxGeometry>
        </mxCell>
        <mxCell id="BGMyjtejTybz9Mz2t8w0-58" value="" style="rounded=1;whiteSpace=wrap;html=1;fillColor=none;dashed=1;strokeColor=#4D4D4D;strokeWidth=2;" vertex="1" parent="1">
          <mxGeometry x="407.29" y="540" width="260" height="380" as="geometry" />
        </mxCell>
        <mxCell id="BGMyjtejTybz9Mz2t8w0-61" value="" style="rounded=1;whiteSpace=wrap;html=1;fillColor=none;dashed=1;strokeColor=#4D4D4D;strokeWidth=2;" vertex="1" parent="1">
          <mxGeometry x="748.3" y="540" width="260" height="380" as="geometry" />
        </mxCell>
        <mxCell id="BGMyjtejTybz9Mz2t8w0-62" value="" style="rounded=1;whiteSpace=wrap;html=1;fillColor=none;dashed=1;strokeColor=#4D4D4D;strokeWidth=2;" vertex="1" parent="1">
          <mxGeometry x="1089.3" y="540" width="260" height="380" as="geometry" />
        </mxCell>
        <mxCell id="BGMyjtejTybz9Mz2t8w0-63" value="&lt;div style=&quot;&quot;&gt;&lt;font style=&quot;font-size: 20px;&quot;&gt;$$ \overrightarrow{h_{t-1}} $$&lt;/font&gt;&lt;/div&gt;" style="text;html=1;align=center;verticalAlign=middle;resizable=0;points=[];autosize=1;strokeColor=none;fillColor=none;" vertex="1" parent="1">
          <mxGeometry x="340" y="634.35" width="280" height="40" as="geometry" />
        </mxCell>
        <mxCell id="BGMyjtejTybz9Mz2t8w0-65" value="&lt;div style=&quot;&quot;&gt;&lt;font style=&quot;font-size: 20px;&quot;&gt;$$ \overrightarrow{h_{t-1}} $$&lt;/font&gt;&lt;/div&gt;" style="text;html=1;align=center;verticalAlign=middle;resizable=0;points=[];autosize=1;strokeColor=none;fillColor=none;" vertex="1" parent="1">
          <mxGeometry x="460" y="674.35" width="280" height="40" as="geometry" />
        </mxCell>
      </root>
    </mxGraphModel>
  </diagram>
</mxfile>
